# xmcd
#
# Track frame offsets: 
#        150
#        18727
#        32550
#        46410
#        62585
#        78137
#        92140
#        108460
#        130800
#        143712
#
# Disc length: 2106 seconds
#
# Revision: 0
# Processed by: cddbd v1.5.2PL0 Copyright (c) Steve Scherf et al.
# Submitted via: ExactAudioCopy v0.99pb3
#
DISCID=7d08380a
DTITLE=The Picadors - Praise and Blame
DYEAR=1990
DGENRE=Alt. Rock
TTITLE0=Becky
TTITLE1=Hungry Flower
TTITLE2=Red Alert
TTITLE3=True Gift
TTITLE4=Praise and Blame
TTITLE5=Sky King
TTITLE6=Moonbound
TTITLE7=Sometimes
TTITLE8=Trailer Girl
TTITLE9=Fatal II
EXTD=
EXTT0=
EXTT1=
EXTT2=
EXTT3=
EXTT4=
EXTT5=
EXTT6=
EXTT7=
EXTT8=
EXTT9=
PLAYORDER=
